<?xml version="1.0" encoding="utf-8"?>
<!-- Generator: Adobe Illustrator 24.3.0, SVG Export Plug-In . SVG Version: 6.00 Build 0)  -->
<svg version="1.1" xmlns="http://www.w3.org/2000/svg" xmlns:xlink="http://www.w3.org/1999/xlink" x="0px" y="0px"
	 viewBox="0 0 80 80" style="enable-background:new 0 0 80 80;" xml:space="preserve">
<style type="text/css">
	.st0{fill:#89DBC0;}
	.st1{fill:#FFFFFF;}
	.st2{fill:#D0DDDD;}
	.st3{fill:#EC6A5E;}
	.st4{fill:#F5BF51;}
	.st5{fill:#61C555;}
	.st6{fill:#495057;}
	.st7{fill:#E68B62;}
	.st8{fill:#99A7FF;}
</style>
<g id="レイヤー_2">
	<g>
		<circle class="st0" cx="40" cy="40" r="40"/>
	</g>
</g>
<g id="レイヤー_3">
	<g>
		<g>
			<path class="st1" d="M68,61H12c-1.1,0-2-0.9-2-2V25h60v34C70,60.1,69.1,61,68,61z"/>
			<path class="st2" d="M70,25H10v-4c0-1.1,0.9-2,2-2h56c1.1,0,2,0.9,2,2V25z"/>
		</g>
		<g>
			<circle class="st3" cx="13.8" cy="22" r="1.2"/>
			<circle class="st4" cx="18" cy="22" r="1.2"/>
			<circle class="st5" cx="22.1" cy="22" r="1.2"/>
		</g>
	</g>
</g>
<g id="Layer_1">
	<rect x="15" y="46" class="st6" width="14" height="2"/>
	<rect x="33" y="46" class="st6" width="14" height="2"/>
	<rect x="51" y="46" class="st6" width="14" height="2"/>
	<rect x="15" y="50" class="st6" width="14" height="2"/>
	<path class="st7" d="M17.5,54.5h9c0.8,0,1.5,0.7,1.5,1.5l0,0c0,0.8-0.7,1.5-1.5,1.5h-9c-0.8,0-1.5-0.7-1.5-1.5l0,0
		C16,55.2,16.7,54.5,17.5,54.5z"/>
	<path class="st7" d="M35.5,54.5h9c0.8,0,1.5,0.7,1.5,1.5l0,0c0,0.8-0.7,1.5-1.5,1.5h-9c-0.8,0-1.5-0.7-1.5-1.5l0,0
		C34,55.2,34.7,54.5,35.5,54.5z"/>
	<path class="st7" d="M53.5,54.5h9c0.8,0,1.5,0.7,1.5,1.5l0,0c0,0.8-0.7,1.5-1.5,1.5h-9c-0.8,0-1.5-0.7-1.5-1.5l0,0
		C52,55.2,52.7,54.5,53.5,54.5z"/>
	<rect x="33" y="50" class="st6" width="14" height="2"/>
	<rect x="51" y="50" class="st6" width="14" height="2"/>
	<rect x="37" y="29.5" class="st6" width="3" height="3"/>
	<rect x="42" y="29.5" class="st6" width="12" height="3"/>
	<rect x="37" y="35" class="st6" width="28" height="2"/>
	<rect x="37" y="39" class="st6" width="22" height="2"/>
	<rect x="15" y="29" class="st8" width="18" height="13"/>
</g>
</svg>
